<?xml version="1.0" encoding="utf-8"?>
<!-- Generator: Adobe Illustrator 24.2.1, SVG Export Plug-In . SVG Version: 6.00 Build 0)  -->
<svg version="1.1" id="Ebene_1" xmlns="http://www.w3.org/2000/svg" xmlns:xlink="http://www.w3.org/1999/xlink" x="0px" y="0px"
	 viewBox="0 0 193.37 19.71" style="enable-background:new 0 0 193.37 19.71;" xml:space="preserve">
<style type="text/css">
	.st0{fill:#F53C00;}
	.st1{fill:none;stroke:#F53C00;stroke-width:0.15;stroke-miterlimit:10.609;}
</style>
<g>
	<path class="st0" d="M186.8,10.27c0.46-1.1,1.04-2.1,1.77-3.02c0.73-0.89,1.46-1.35,2.21-1.35c0.91,0,1.37,0.73,1.37,2.18
		c0,1.79-0.52,3.39-1.58,4.83c-1.06,1.44-2.12,2.14-3.22,2.14c-1.02,0-1.52-0.83-1.5-1.75c0.02-0.46,0.1-0.89,0.27-1.33L186.8,10.27
		z M190.56,0.08c-0.58,0.42-1.56,0.62-2.95,0.62h-1.41v0.42h2.18c0.91,0,0.91,0.1,0.56,0.94l-5.43,13.42h0.42l1.35-2.39h0.1
		c-0.1,0.64,0.02,1.23,0.35,1.73c0.31,0.52,0.9,0.77,1.71,0.77c0.81,0,1.68-0.35,2.6-1.08c0.92-0.71,1.69-1.64,2.31-2.81
		c0.62-1.17,0.94-2.33,0.94-3.5c0-1.83-0.92-2.81-2.31-2.81c-1.06,0-2.04,0.67-2.98,2h-0.08l2.95-7.3H190.56z M173,9.85l0.38-0.89
		c0.21-0.52,0.37-0.9,0.5-1.16c0.1-0.27,0.27-0.56,0.46-0.92c0.37-0.69,0.69-0.98,1.04-0.98c0.35,0,0.52,0.21,0.52,0.62
		c0,0.46-0.21,1.12-0.65,2.02c-0.44,0.9-0.87,1.83-1.31,2.79c-0.44,0.98-0.65,1.77-0.65,2.37c0,1.19,0.81,1.87,1.87,1.87
		c1.15,0,1.98-0.75,2.81-2.08h0.1c-0.1,0.52-0.23,1.21,0.17,1.71c0.19,0.25,0.48,0.37,0.87,0.37c1.08,0,1.85-0.94,2.87-3.45
		l0.17-0.42l-0.42-0.17l-0.17,0.42c-0.85,2.06-1.6,3.1-2.25,3.1c-0.42,0-0.62-0.25-0.62-0.73c0-0.29,0.35-1.29,1.04-2.98l2.29-5.66
		h-1.14l-2.04,4.99c-0.02,0.02-0.04,0.08-0.06,0.15c-0.23,0.54-0.37,0.91-0.48,1.14c-0.1,0.23-0.27,0.56-0.52,1.04
		c-0.25,0.48-0.48,0.81-0.67,1.02c-0.4,0.44-1.04,0.91-1.64,0.91c-0.65,0-1.14-0.46-1.14-1.14c0-0.58,0.44-1.77,1.31-3.56
		c0.85-1.77,1.29-2.98,1.29-3.62c0-0.81-0.52-1.25-1.35-1.25c-0.48,0-0.94,0.31-1.23,0.62c-0.15,0.17-0.31,0.44-0.5,0.79
		c-0.19,0.35-0.33,0.64-0.44,0.87c-0.1,0.23-0.25,0.6-0.46,1.12l-0.38,0.89L173,9.85z M168.59,0.08c-0.58,0.42-1.56,0.62-2.96,0.62
		h-2.08v0.42h2.83c0.92,0,0.96,0.1,0.56,0.94l-3.18,7.8c-0.5,1.19-0.75,2.2-0.75,3.06c0,1.58,1.1,2.66,2.6,2.66
		c1.35,0,2.54-1.06,3.81-3.41l0.46-0.85l-0.38-0.21l-0.46,0.85c-1.1,2.06-2.16,3.1-3.22,3.1c-0.92,0-1.77-0.73-1.77-1.98
		c0-0.65,0.23-1.56,0.71-2.77l4.14-10.24H168.59z M156.57,5.9c1.16,0,1.66,0.66,1.66,1.14c0,0.5-1.25,0.54-1.25,1.46
		c0,0.35,0.31,0.62,0.73,0.62c0.69,0,1.25-0.58,1.25-1.66s-0.77-2.08-2.29-2.08c-1.06,0-2.06,0.35-3.04,1.06
		C152.66,7.15,151.91,8,151.37,9c-0.56,1.02-0.83,2-0.83,2.93c0,2.25,1.19,3.64,3.43,3.64c1.1,0,2.1-0.35,2.96-1.04
		c0.85-0.69,1.46-1.5,1.81-2.41l0.17-0.42l-0.42-0.17l-0.17,0.42c-0.31,0.79-0.85,1.5-1.6,2.14c-0.77,0.64-1.64,0.96-2.64,0.96
		c-1.5,0-2.39-1.16-2.39-2.81c0-1.56,0.5-3.02,1.52-4.35C154.22,6.57,155.34,5.9,156.57,5.9 M141.84,12.37
		c0.85-2.06,1.87-3.99,3.18-5.41c0.64-0.71,1.25-1.06,1.77-1.06c0.58,0,0.94,0.37,0.94,0.73c0,1.06-1.56,0.71-1.56,1.77
		c0,0.35,0.31,0.62,0.73,0.62c0.35,0,0.69-0.21,1-0.6c0.31-0.39,0.46-0.89,0.46-1.48c0-1.06-0.65-1.56-1.46-1.56
		c-1.1,0-2.35,1.14-3.73,3.41h-0.1c0.83-2.27,0.62-3.41-0.65-3.41c-0.52,0-1.04,0.27-1.52,0.79c-0.48,0.52-1.1,1.41-1.83,2.64
		l-0.5,0.83l0.38,0.21l0.5-0.83c1.25-2.08,2.16-3.12,2.77-3.12c0.35,0,0.52,0.21,0.52,0.62c0,0.52-0.31,1.56-0.94,3.08l-2.29,5.66
		h1.15L141.84,12.37z M133.89,5.9c1.23,0,1.77,0.62,1.77,1.46c0,1.14-1.1,2.04-2.66,2.52c-1.58,0.48-2.7,0.67-3.81,0.77
		c0.31-1.31,0.94-2.41,1.83-3.35C131.91,6.36,132.87,5.9,133.89,5.9 M135.8,11.54l-0.17,0.42c-0.31,0.79-0.85,1.5-1.6,2.14
		c-0.77,0.64-1.64,0.96-2.64,0.96c-1.5,0-2.39-1.16-2.39-2.81c0-0.46,0.04-0.85,0.1-1.16c0.89-0.08,1.68-0.17,3.18-0.52
		c0.73-0.19,1.37-0.4,1.93-0.65c1.1-0.5,2.06-1.46,2.06-2.56c0-1.19-0.81-1.98-2.29-1.98c-1.06,0-2.06,0.35-3.04,1.06
		C129.98,7.15,129.23,8,128.69,9c-0.56,1.02-0.83,2-0.83,2.93c0,2.25,1.19,3.64,3.43,3.64c1.1,0,2.1-0.35,2.96-1.04
		c0.85-0.69,1.46-1.5,1.81-2.41l0.17-0.42L135.8,11.54z M118.99,10.27c1.19-2.91,2.41-4.37,3.66-4.37c0.81,0,1.44,0.83,1.44,2.39
		c0,1.56-0.46,3.08-1.39,4.56c-0.94,1.48-1.93,2.2-2.96,2.2c-1.02,0-1.64-0.83-1.64-1.75c0-0.46,0.06-0.89,0.21-1.33L118.99,10.27z
		 M114.77,17.86c-0.23,0.56-0.48,0.94-0.75,1.1c-0.27,0.17-0.71,0.25-1.35,0.25h-0.42v0.42h5.1v-0.42h-0.83
		c-0.94,0-1.06-0.33-0.62-1.35l1.87-4.58c-0.08,0.6,0.06,1.14,0.44,1.6c0.35,0.46,0.92,0.69,1.64,0.69c0.87,0,1.73-0.37,2.58-1.12
		c0.85-0.75,1.54-1.71,2.06-2.85c0.52-1.14,0.77-2.29,0.77-3.41c0-1.73-0.98-2.81-2.29-2.81c-1.23,0-2.25,0.77-3.1,2.29h-0.1
		c0.23-0.56,0.27-1.08,0.1-1.56c-0.19-0.48-0.56-0.73-1.14-0.73c-1.08,0-1.85,0.94-2.87,3.45l-0.17,0.42l0.42,0.17L116.27,9
		c0.85-2.06,1.6-3.1,2.25-3.1c0.42,0,0.62,0.25,0.62,0.73c0,0.29-0.35,1.29-1.04,2.97L114.77,17.86z M107.65,10.27
		c1.19-2.91,2.41-4.37,3.66-4.37c0.81,0,1.44,0.83,1.44,2.39c0,1.56-0.46,3.08-1.39,4.56c-0.94,1.48-1.93,2.2-2.95,2.2
		c-1.02,0-1.64-0.83-1.64-1.75c0-0.46,0.06-0.89,0.21-1.33L107.65,10.27z M103.43,17.86c-0.23,0.56-0.48,0.94-0.75,1.1
		c-0.27,0.17-0.71,0.25-1.35,0.25h-0.42v0.42h5.1v-0.42h-0.83c-0.94,0-1.06-0.33-0.62-1.35l1.87-4.58c-0.08,0.6,0.06,1.14,0.44,1.6
		c0.35,0.46,0.92,0.69,1.64,0.69c0.87,0,1.73-0.37,2.58-1.12c0.85-0.75,1.54-1.71,2.06-2.85c0.52-1.14,0.77-2.29,0.77-3.41
		c0-1.73-0.98-2.81-2.29-2.81c-1.23,0-2.25,0.77-3.1,2.29h-0.1c0.23-0.56,0.27-1.08,0.1-1.56c-0.19-0.48-0.56-0.73-1.14-0.73
		c-1.08,0-1.85,0.94-2.87,3.45l-0.17,0.42l0.42,0.17L104.93,9c0.85-2.06,1.6-3.1,2.25-3.1c0.42,0,0.62,0.25,0.62,0.73
		c0,0.29-0.35,1.29-1.04,2.97L103.43,17.86z M93.63,9.85l0.38-0.89c0.21-0.52,0.37-0.9,0.5-1.16c0.1-0.27,0.27-0.56,0.46-0.92
		C95.34,6.19,95.65,5.9,96,5.9c0.35,0,0.52,0.21,0.52,0.62c0,0.46-0.21,1.12-0.64,2.02c-0.44,0.9-0.87,1.83-1.31,2.79
		c-0.44,0.98-0.64,1.77-0.64,2.37c0,1.19,0.81,1.87,1.87,1.87c1.14,0,1.98-0.75,2.81-2.08h0.1c-0.1,0.52-0.23,1.21,0.17,1.71
		c0.19,0.25,0.48,0.37,0.87,0.37c1.08,0,1.85-0.94,2.87-3.45l0.17-0.42l-0.42-0.17l-0.17,0.42c-0.85,2.06-1.6,3.1-2.25,3.1
		c-0.42,0-0.62-0.25-0.62-0.73c0-0.29,0.35-1.29,1.04-2.98l2.29-5.66h-1.14l-2.04,4.99c-0.02,0.02-0.04,0.08-0.06,0.15
		c-0.23,0.54-0.37,0.91-0.48,1.14c-0.1,0.23-0.27,0.56-0.52,1.04c-0.25,0.48-0.48,0.81-0.67,1.02c-0.4,0.44-1.04,0.91-1.64,0.91
		c-0.64,0-1.14-0.46-1.14-1.14c0-0.58,0.44-1.77,1.31-3.56c0.85-1.77,1.29-2.98,1.29-3.62c0-0.81-0.52-1.25-1.35-1.25
		c-0.48,0-0.94,0.31-1.23,0.62c-0.14,0.17-0.31,0.44-0.5,0.79c-0.19,0.35-0.33,0.64-0.44,0.87c-0.1,0.23-0.25,0.6-0.46,1.12
		l-0.37,0.89L93.63,9.85z M92.18,1.11l-0.23-0.19c-0.31-0.25-1.06-0.54-1.87-0.54c-1.27,0-2.37,0.39-3.31,1.21
		c-0.94,0.81-1.39,1.87-1.39,3.18c0,0.56,0.17,1.12,0.5,1.73c0.33,0.6,0.71,1.1,1.1,1.54c0.4,0.44,0.75,0.94,1.08,1.54
		c0.33,0.6,0.5,1.21,0.5,1.77c0,1.08-0.33,1.98-0.98,2.66c-0.64,0.69-1.48,1.04-2.48,1.04c-0.85,0-1.46-0.25-1.83-0.77
		c-0.38-0.5-0.56-1.1-0.56-1.79c0-0.54,0.06-1.08,0.17-1.6h-0.44l-1.6,4.37l1.43-0.83l0.27,0.29c0.33,0.4,1.31,0.85,2.45,0.85
		c1.46,0,2.64-0.46,3.54-1.35c0.89-0.9,1.33-2.04,1.33-3.43c0-0.62-0.17-1.25-0.5-1.89c-0.33-0.62-0.69-1.17-1.08-1.6
		c-0.39-0.44-0.77-0.94-1.1-1.5c-0.33-0.56-0.5-1.08-0.5-1.58c0-1.08,0.31-1.91,0.92-2.48c0.6-0.56,1.37-0.83,2.27-0.83
		c1.14,0,1.85,0.77,2.06,1.52c0.1,0.4,0.15,0.81,0.15,1.27c0,0.48-0.04,0.9-0.1,1.27l0.46-0.1l1-4.37L92.18,1.11z M67.83,7.67
		c0-0.6-0.23-1.14-0.71-1.6c-0.48-0.46-1.1-0.69-1.89-0.69c-0.94,0-1.71,0.27-2.31,0.83c-0.6,0.56-0.92,1.25-0.92,2.08
		c0,2.27,3.33,2.89,3.33,4.79c0,0.64-0.23,1.12-0.71,1.46c-0.48,0.35-1.04,0.52-1.68,0.52c-0.56,0-1.06-0.12-1.46-0.39
		c-0.42-0.25-0.62-0.54-0.62-0.85s0.17-0.58,0.48-0.83c0.31-0.25,0.46-0.52,0.46-0.83c0-0.42-0.31-0.73-0.73-0.73
		c-0.58,0-1.14,0.6-1.14,1.66c0,0.64,0.27,1.23,0.79,1.73c0.52,0.52,1.25,0.77,2.23,0.77c0.94,0,1.73-0.27,2.37-0.83
		c0.64-0.56,0.96-1.25,0.96-2.08c0-1.33-1.21-2.16-2.14-2.89c-0.67-0.5-1.19-1.16-1.19-1.89c0-1.14,1.02-1.98,2.29-1.98
		c0.89,0,1.66,0.52,1.66,1.04c0,0.19-0.12,0.39-0.35,0.62c-0.25,0.23-0.37,0.48-0.37,0.73c0,0.42,0.31,0.73,0.73,0.73
		C67.4,9.02,67.83,8.6,67.83,7.67 M56.7,2.01c0-0.83-0.5-1.52-1.35-1.52c-0.65,0-1.27,0.56-1.27,1.31c0,0.48,0.31,0.77,0.81,0.77
		c0.17,0,0.48-0.1,0.54-0.1c0.29,0,0.44,0.17,0.44,0.48c0,0.31-0.08,0.64-0.23,0.96c-0.17,0.31-0.35,0.58-0.54,0.79
		c-0.42,0.42-1.02,0.85-1.23,0.98c-0.1,0.06-0.19,0.12-0.25,0.14l0.12,0.31c0.83-0.4,1.54-0.98,2.1-1.71
		C56.41,3.69,56.7,2.9,56.7,2.01 M42.66,2.88c0.4,0.42,1.06,0.42,1.48,0c0.4-0.4,0.4-1.06,0-1.48c-0.42-0.4-1.08-0.4-1.48,0
		C42.24,1.82,42.24,2.49,42.66,2.88 M42.8,5.07c-0.58,0.42-1.56,0.62-2.95,0.62h-1.87v0.42h2.6c0.92,0,0.96,0.1,0.56,0.94
		l-1.48,3.66c-0.56,1.29-0.83,2.23-0.83,2.83c0,0.71,0.21,1.23,0.65,1.54c0.44,0.33,0.89,0.5,1.41,0.5c1.33,0,2.6-1.14,3.83-3.41
		l0.23-0.42l-0.37-0.21l-0.23,0.42c-1.1,2.06-2.19,3.1-3.25,3.1c-0.73,0-1.31-0.42-1.31-1.35c0-0.35,0.27-1.19,0.83-2.54l2.5-6.1
		H42.8z M32.53,0.08c-0.58,0.42-1.56,0.62-2.95,0.62h-2.08v0.42h2.83c0.91,0,0.96,0.1,0.56,0.94l-3.18,7.8
		c-0.5,1.19-0.75,2.2-0.75,3.06c0,1.58,1.1,2.66,2.6,2.66c1.35,0,2.54-1.06,3.81-3.41l0.46-0.85l-0.37-0.21l-0.46,0.85
		c-1.1,2.06-2.16,3.1-3.23,3.1c-0.92,0-1.77-0.73-1.77-1.98c0-0.65,0.23-1.56,0.71-2.77l4.14-10.24H32.53z M19.98,2.88
		c0.4,0.42,1.06,0.42,1.48,0c0.4-0.4,0.4-1.06,0-1.48c-0.42-0.4-1.08-0.4-1.48,0C19.56,1.82,19.56,2.49,19.98,2.88 M20.13,5.07
		c-0.58,0.42-1.56,0.62-2.95,0.62H15.3v0.42h2.6c0.92,0,0.96,0.1,0.56,0.94l-1.48,3.66c-0.56,1.29-0.83,2.23-0.83,2.83
		c0,0.71,0.21,1.23,0.65,1.54c0.44,0.33,0.89,0.5,1.41,0.5c1.33,0,2.6-1.14,3.83-3.41l0.23-0.42l-0.38-0.21l-0.23,0.42
		c-1.1,2.06-2.18,3.1-3.25,3.1c-0.73,0-1.31-0.42-1.31-1.35c0-0.35,0.27-1.19,0.83-2.54l2.5-6.1H20.13z M5.98,0.7L5.81,1.11
		c1.14,0,1.23,0.83,0.73,1.77L2.46,13.08c-0.48,1.1-1.04,1.77-2.18,1.77l-0.17,0.42h3.45l0.17-0.42c-0.77,0-1.06-0.39-0.98-0.87
		c0.02-0.23,0.1-0.54,0.25-0.89L7.1,2.88L4.81,15.26h0.42l7.49-12.38L8.43,13.49C8.22,14.04,8,14.39,7.75,14.58
		c-0.25,0.19-0.65,0.27-1.21,0.27l-0.17,0.42h3.89l0.17-0.42c-1.1,0-1.25-0.33-0.81-1.35l4.47-11.03c0.21-0.54,0.44-0.9,0.69-1.08
		c0.25-0.19,0.65-0.27,1.21-0.27l0.17-0.42h-2.66L6.48,12.25L8.64,0.7H5.98z"/>
	<path class="st1" d="M186.8,10.27c0.46-1.1,1.04-2.1,1.77-3.02c0.73-0.89,1.46-1.35,2.21-1.35c0.91,0,1.37,0.73,1.37,2.18
		c0,1.79-0.52,3.39-1.58,4.83c-1.06,1.44-2.12,2.14-3.22,2.14c-1.02,0-1.52-0.83-1.5-1.75c0.02-0.46,0.1-0.89,0.27-1.33L186.8,10.27
		z M190.56,0.08c-0.58,0.42-1.56,0.62-2.95,0.62h-1.41v0.42h2.18c0.91,0,0.91,0.1,0.56,0.94l-5.43,13.42h0.42l1.35-2.39h0.1
		c-0.1,0.64,0.02,1.23,0.35,1.73c0.31,0.52,0.9,0.77,1.71,0.77c0.81,0,1.68-0.35,2.6-1.08c0.92-0.71,1.69-1.64,2.31-2.81
		c0.62-1.17,0.94-2.33,0.94-3.5c0-1.83-0.92-2.81-2.31-2.81c-1.06,0-2.04,0.67-2.98,2h-0.08l2.95-7.3H190.56z M173,9.85l0.38-0.89
		c0.21-0.52,0.37-0.9,0.5-1.16c0.1-0.27,0.27-0.56,0.46-0.92c0.37-0.69,0.69-0.98,1.04-0.98c0.35,0,0.52,0.21,0.52,0.62
		c0,0.46-0.21,1.12-0.65,2.02c-0.44,0.9-0.87,1.83-1.31,2.79c-0.44,0.98-0.65,1.77-0.65,2.37c0,1.19,0.81,1.87,1.87,1.87
		c1.15,0,1.98-0.75,2.81-2.08h0.1c-0.1,0.52-0.23,1.21,0.17,1.71c0.19,0.25,0.48,0.37,0.87,0.37c1.08,0,1.85-0.94,2.87-3.45
		l0.17-0.42l-0.42-0.17l-0.17,0.42c-0.85,2.06-1.6,3.1-2.25,3.1c-0.42,0-0.62-0.25-0.62-0.73c0-0.29,0.35-1.29,1.04-2.98l2.29-5.66
		h-1.14l-2.04,4.99c-0.02,0.02-0.04,0.08-0.06,0.15c-0.23,0.54-0.37,0.91-0.48,1.14c-0.1,0.23-0.27,0.56-0.52,1.04
		c-0.25,0.48-0.48,0.81-0.67,1.02c-0.4,0.44-1.04,0.91-1.64,0.91c-0.65,0-1.14-0.46-1.14-1.14c0-0.58,0.44-1.77,1.31-3.56
		c0.85-1.77,1.29-2.98,1.29-3.62c0-0.81-0.52-1.25-1.35-1.25c-0.48,0-0.94,0.31-1.23,0.62c-0.15,0.17-0.31,0.44-0.5,0.79
		c-0.19,0.35-0.33,0.64-0.44,0.87c-0.1,0.23-0.25,0.6-0.46,1.12l-0.38,0.89L173,9.85z M168.59,0.08c-0.58,0.42-1.56,0.62-2.96,0.62
		h-2.08v0.42h2.83c0.92,0,0.96,0.1,0.56,0.94l-3.18,7.8c-0.5,1.19-0.75,2.2-0.75,3.06c0,1.58,1.1,2.66,2.6,2.66
		c1.35,0,2.54-1.06,3.81-3.41l0.46-0.85l-0.38-0.21l-0.46,0.85c-1.1,2.06-2.16,3.1-3.22,3.1c-0.92,0-1.77-0.73-1.77-1.98
		c0-0.65,0.23-1.56,0.71-2.77l4.14-10.24H168.59z M156.57,5.9c1.16,0,1.66,0.66,1.66,1.14c0,0.5-1.25,0.54-1.25,1.46
		c0,0.35,0.31,0.62,0.73,0.62c0.69,0,1.25-0.58,1.25-1.66s-0.77-2.08-2.29-2.08c-1.06,0-2.06,0.35-3.04,1.06
		C152.66,7.15,151.91,8,151.37,9c-0.56,1.02-0.83,2-0.83,2.93c0,2.25,1.19,3.64,3.43,3.64c1.1,0,2.1-0.35,2.96-1.04
		c0.85-0.69,1.46-1.5,1.81-2.41l0.17-0.42l-0.42-0.17l-0.17,0.42c-0.31,0.79-0.85,1.5-1.6,2.14c-0.77,0.64-1.64,0.96-2.64,0.96
		c-1.5,0-2.39-1.16-2.39-2.81c0-1.56,0.5-3.02,1.52-4.35C154.22,6.57,155.34,5.9,156.57,5.9z M141.84,12.37
		c0.85-2.06,1.87-3.99,3.18-5.41c0.64-0.71,1.25-1.06,1.77-1.06c0.58,0,0.94,0.37,0.94,0.73c0,1.06-1.56,0.71-1.56,1.77
		c0,0.35,0.31,0.62,0.73,0.62c0.35,0,0.69-0.21,1-0.6c0.31-0.39,0.46-0.89,0.46-1.48c0-1.06-0.65-1.56-1.46-1.56
		c-1.1,0-2.35,1.14-3.73,3.41h-0.1c0.83-2.27,0.62-3.41-0.65-3.41c-0.52,0-1.04,0.27-1.52,0.79c-0.48,0.52-1.1,1.41-1.83,2.64
		l-0.5,0.83l0.38,0.21l0.5-0.83c1.25-2.08,2.16-3.12,2.77-3.12c0.35,0,0.52,0.21,0.52,0.62c0,0.52-0.31,1.56-0.94,3.08l-2.29,5.66
		h1.15L141.84,12.37z M133.89,5.9c1.23,0,1.77,0.62,1.77,1.46c0,1.14-1.1,2.04-2.66,2.52c-1.58,0.48-2.7,0.67-3.81,0.77
		c0.31-1.31,0.94-2.41,1.83-3.35C131.91,6.36,132.87,5.9,133.89,5.9z M135.8,11.54l-0.17,0.42c-0.31,0.79-0.85,1.5-1.6,2.14
		c-0.77,0.64-1.64,0.96-2.64,0.96c-1.5,0-2.39-1.16-2.39-2.81c0-0.46,0.04-0.85,0.1-1.16c0.89-0.08,1.68-0.17,3.18-0.52
		c0.73-0.19,1.37-0.4,1.93-0.65c1.1-0.5,2.06-1.46,2.06-2.56c0-1.19-0.81-1.98-2.29-1.98c-1.06,0-2.06,0.35-3.04,1.06
		C129.98,7.15,129.23,8,128.69,9c-0.56,1.02-0.83,2-0.83,2.93c0,2.25,1.19,3.64,3.43,3.64c1.1,0,2.1-0.35,2.96-1.04
		c0.85-0.69,1.46-1.5,1.81-2.41l0.17-0.42L135.8,11.54z M118.99,10.27c1.19-2.91,2.41-4.37,3.66-4.37c0.81,0,1.44,0.83,1.44,2.39
		c0,1.56-0.46,3.08-1.39,4.56c-0.94,1.48-1.93,2.2-2.96,2.2c-1.02,0-1.64-0.83-1.64-1.75c0-0.46,0.06-0.89,0.21-1.33L118.99,10.27z
		 M114.77,17.86c-0.23,0.56-0.48,0.94-0.75,1.1c-0.27,0.17-0.71,0.25-1.35,0.25h-0.42v0.42h5.1v-0.42h-0.83
		c-0.94,0-1.06-0.33-0.62-1.35l1.87-4.58c-0.08,0.6,0.06,1.14,0.44,1.6c0.35,0.46,0.92,0.69,1.64,0.69c0.87,0,1.73-0.37,2.58-1.12
		c0.85-0.75,1.54-1.71,2.06-2.85c0.52-1.14,0.77-2.29,0.77-3.41c0-1.73-0.98-2.81-2.29-2.81c-1.23,0-2.25,0.77-3.1,2.29h-0.1
		c0.23-0.56,0.27-1.08,0.1-1.56c-0.19-0.48-0.56-0.73-1.14-0.73c-1.08,0-1.85,0.94-2.87,3.45l-0.17,0.42l0.42,0.17L116.27,9
		c0.85-2.06,1.6-3.1,2.25-3.1c0.42,0,0.62,0.25,0.62,0.73c0,0.29-0.35,1.29-1.04,2.97L114.77,17.86z M107.65,10.27
		c1.19-2.91,2.41-4.37,3.66-4.37c0.81,0,1.44,0.83,1.44,2.39c0,1.56-0.46,3.08-1.39,4.56c-0.94,1.48-1.93,2.2-2.95,2.2
		c-1.02,0-1.64-0.83-1.64-1.75c0-0.46,0.06-0.89,0.21-1.33L107.65,10.27z M103.43,17.86c-0.23,0.56-0.48,0.94-0.75,1.1
		c-0.27,0.17-0.71,0.25-1.35,0.25h-0.42v0.42h5.1v-0.42h-0.83c-0.94,0-1.06-0.33-0.62-1.35l1.87-4.58c-0.08,0.6,0.06,1.14,0.44,1.6
		c0.35,0.46,0.92,0.69,1.64,0.69c0.87,0,1.73-0.37,2.58-1.12c0.85-0.75,1.54-1.71,2.06-2.85c0.52-1.14,0.77-2.29,0.77-3.41
		c0-1.73-0.98-2.81-2.29-2.81c-1.23,0-2.25,0.77-3.1,2.29h-0.1c0.23-0.56,0.27-1.08,0.1-1.56c-0.19-0.48-0.56-0.73-1.14-0.73
		c-1.08,0-1.85,0.94-2.87,3.45l-0.17,0.42l0.42,0.17L104.93,9c0.85-2.06,1.6-3.1,2.25-3.1c0.42,0,0.62,0.25,0.62,0.73
		c0,0.29-0.35,1.29-1.04,2.97L103.43,17.86z M93.63,9.85l0.38-0.89c0.21-0.52,0.37-0.9,0.5-1.16c0.1-0.27,0.27-0.56,0.46-0.92
		C95.34,6.19,95.65,5.9,96,5.9c0.35,0,0.52,0.21,0.52,0.62c0,0.46-0.21,1.12-0.64,2.02c-0.44,0.9-0.87,1.83-1.31,2.79
		c-0.44,0.98-0.64,1.77-0.64,2.37c0,1.19,0.81,1.87,1.87,1.87c1.14,0,1.98-0.75,2.81-2.08h0.1c-0.1,0.52-0.23,1.21,0.17,1.71
		c0.19,0.25,0.48,0.37,0.87,0.37c1.08,0,1.85-0.94,2.87-3.45l0.17-0.42l-0.42-0.17l-0.17,0.42c-0.85,2.06-1.6,3.1-2.25,3.1
		c-0.42,0-0.62-0.25-0.62-0.73c0-0.29,0.35-1.29,1.04-2.98l2.29-5.66h-1.14l-2.04,4.99c-0.02,0.02-0.04,0.08-0.06,0.15
		c-0.23,0.54-0.37,0.91-0.48,1.14c-0.1,0.23-0.27,0.56-0.52,1.04c-0.25,0.48-0.48,0.81-0.67,1.02c-0.4,0.44-1.04,0.91-1.64,0.91
		c-0.64,0-1.14-0.46-1.14-1.14c0-0.58,0.44-1.77,1.31-3.56c0.85-1.77,1.29-2.98,1.29-3.62c0-0.81-0.52-1.25-1.35-1.25
		c-0.48,0-0.94,0.31-1.23,0.62c-0.14,0.17-0.31,0.44-0.5,0.79c-0.19,0.35-0.33,0.64-0.44,0.87c-0.1,0.23-0.25,0.6-0.46,1.12
		l-0.37,0.89L93.63,9.85z M92.18,1.11l-0.23-0.19c-0.31-0.25-1.06-0.54-1.87-0.54c-1.27,0-2.37,0.39-3.31,1.21
		c-0.94,0.81-1.39,1.87-1.39,3.18c0,0.56,0.17,1.12,0.5,1.73c0.33,0.6,0.71,1.1,1.1,1.54c0.4,0.44,0.75,0.94,1.08,1.54
		c0.33,0.6,0.5,1.21,0.5,1.77c0,1.08-0.33,1.98-0.98,2.66c-0.64,0.69-1.48,1.04-2.48,1.04c-0.85,0-1.46-0.25-1.83-0.77
		c-0.38-0.5-0.56-1.1-0.56-1.79c0-0.54,0.06-1.08,0.17-1.6h-0.44l-1.6,4.37l1.43-0.83l0.27,0.29c0.33,0.4,1.31,0.85,2.45,0.85
		c1.46,0,2.64-0.46,3.54-1.35c0.89-0.9,1.33-2.04,1.33-3.43c0-0.62-0.17-1.25-0.5-1.89c-0.33-0.62-0.69-1.17-1.08-1.6
		c-0.39-0.44-0.77-0.94-1.1-1.5c-0.33-0.56-0.5-1.08-0.5-1.58c0-1.08,0.31-1.91,0.92-2.48c0.6-0.56,1.37-0.83,2.27-0.83
		c1.14,0,1.85,0.77,2.06,1.52c0.1,0.4,0.15,0.81,0.15,1.27c0,0.48-0.04,0.9-0.1,1.27l0.46-0.1l1-4.37L92.18,1.11z M67.83,7.67
		c0-0.6-0.23-1.14-0.71-1.6c-0.48-0.46-1.1-0.69-1.89-0.69c-0.94,0-1.71,0.27-2.31,0.83c-0.6,0.56-0.92,1.25-0.92,2.08
		c0,2.27,3.33,2.89,3.33,4.79c0,0.64-0.23,1.12-0.71,1.46c-0.48,0.35-1.04,0.52-1.68,0.52c-0.56,0-1.06-0.12-1.46-0.39
		c-0.42-0.25-0.62-0.54-0.62-0.85s0.17-0.58,0.48-0.83c0.31-0.25,0.46-0.52,0.46-0.83c0-0.42-0.31-0.73-0.73-0.73
		c-0.58,0-1.14,0.6-1.14,1.66c0,0.64,0.27,1.23,0.79,1.73c0.52,0.52,1.25,0.77,2.23,0.77c0.94,0,1.73-0.27,2.37-0.83
		c0.64-0.56,0.96-1.25,0.96-2.08c0-1.33-1.21-2.16-2.14-2.89c-0.67-0.5-1.19-1.16-1.19-1.89c0-1.14,1.02-1.98,2.29-1.98
		c0.89,0,1.66,0.52,1.66,1.04c0,0.19-0.12,0.39-0.35,0.62c-0.25,0.23-0.37,0.48-0.37,0.73c0,0.42,0.31,0.73,0.73,0.73
		C67.4,9.02,67.83,8.6,67.83,7.67z M56.7,2.01c0-0.83-0.5-1.52-1.35-1.52c-0.65,0-1.27,0.56-1.27,1.31c0,0.48,0.31,0.77,0.81,0.77
		c0.17,0,0.48-0.1,0.54-0.1c0.29,0,0.44,0.17,0.44,0.48c0,0.31-0.08,0.64-0.23,0.96c-0.17,0.31-0.35,0.58-0.54,0.79
		c-0.42,0.42-1.02,0.85-1.23,0.98c-0.1,0.06-0.19,0.12-0.25,0.14l0.12,0.31c0.83-0.4,1.54-0.98,2.1-1.71
		C56.41,3.69,56.7,2.9,56.7,2.01z M42.66,2.88c0.4,0.42,1.06,0.42,1.48,0c0.4-0.4,0.4-1.06,0-1.48c-0.42-0.4-1.08-0.4-1.48,0
		C42.24,1.82,42.24,2.49,42.66,2.88z M42.8,5.07c-0.58,0.42-1.56,0.62-2.95,0.62h-1.87v0.42h2.6c0.92,0,0.96,0.1,0.56,0.94
		l-1.48,3.66c-0.56,1.29-0.83,2.23-0.83,2.83c0,0.71,0.21,1.23,0.65,1.54c0.44,0.33,0.89,0.5,1.41,0.5c1.33,0,2.6-1.14,3.83-3.41
		l0.23-0.42l-0.37-0.21l-0.23,0.42c-1.1,2.06-2.19,3.1-3.25,3.1c-0.73,0-1.31-0.42-1.31-1.35c0-0.35,0.27-1.19,0.83-2.54l2.5-6.1
		H42.8z M32.53,0.08c-0.58,0.42-1.56,0.62-2.95,0.62h-2.08v0.42h2.83c0.91,0,0.96,0.1,0.56,0.94l-3.18,7.8
		c-0.5,1.19-0.75,2.2-0.75,3.06c0,1.58,1.1,2.66,2.6,2.66c1.35,0,2.54-1.06,3.81-3.41l0.46-0.85l-0.37-0.21l-0.46,0.85
		c-1.1,2.06-2.16,3.1-3.23,3.1c-0.92,0-1.77-0.73-1.77-1.98c0-0.65,0.23-1.56,0.71-2.77l4.14-10.24H32.53z M19.98,2.88
		c0.4,0.42,1.06,0.42,1.48,0c0.4-0.4,0.4-1.06,0-1.48c-0.42-0.4-1.08-0.4-1.48,0C19.56,1.82,19.56,2.49,19.98,2.88z M20.13,5.07
		c-0.58,0.42-1.56,0.62-2.95,0.62H15.3v0.42h2.6c0.92,0,0.96,0.1,0.56,0.94l-1.48,3.66c-0.56,1.29-0.83,2.23-0.83,2.83
		c0,0.71,0.21,1.23,0.65,1.54c0.44,0.33,0.89,0.5,1.41,0.5c1.33,0,2.6-1.14,3.83-3.41l0.23-0.42l-0.38-0.21l-0.23,0.42
		c-1.1,2.06-2.18,3.1-3.25,3.1c-0.73,0-1.31-0.42-1.31-1.35c0-0.35,0.27-1.19,0.83-2.54l2.5-6.1H20.13z M5.98,0.7L5.81,1.11
		c1.14,0,1.23,0.83,0.73,1.77L2.46,13.08c-0.48,1.1-1.04,1.77-2.18,1.77l-0.17,0.42h3.45l0.17-0.42c-0.77,0-1.06-0.39-0.98-0.87
		c0.02-0.23,0.1-0.54,0.25-0.89L7.1,2.88L4.81,15.26h0.42l7.49-12.38L8.43,13.49C8.22,14.04,8,14.39,7.75,14.58
		c-0.25,0.19-0.65,0.27-1.21,0.27l-0.17,0.42h3.89l0.17-0.42c-1.1,0-1.25-0.33-0.81-1.35l4.47-11.03c0.21-0.54,0.44-0.9,0.69-1.08
		c0.25-0.19,0.65-0.27,1.21-0.27l0.17-0.42h-2.66L6.48,12.25L8.64,0.7H5.98z"/>
</g>
</svg>
