<?xml version="1.0" encoding="utf-8"?>
<!-- Generator: Adobe Illustrator 24.2.1, SVG Export Plug-In . SVG Version: 6.00 Build 0)  -->
<svg version="1.1" id="Ebene_1" xmlns="http://www.w3.org/2000/svg" xmlns:xlink="http://www.w3.org/1999/xlink" x="0px" y="0px"
	 viewBox="0 0 16.22 17.64" style="enable-background:new 0 0 16.22 17.64;" xml:space="preserve">
<style type="text/css">
	.st0{fill:#F53C00;}
</style>
<g>
	<path class="st0" d="M13.57,14.1c0.74,0.05,1.53-0.22,2.05-0.71c0.39-0.36,0.59-0.81,0.59-1.3c0-0.75-0.22-1.34-0.65-1.7
		c-0.41-0.36-1-0.49-1.69-0.38c-0.62,0.07-1.09,0.28-1.51,0.48c-0.66,0.3-1.24,0.57-2.03,0.07c-0.56-0.33-1.07-0.82-1.4-1.36
		L8.86,9.09L9,9.1c1.4,0.09,2.68-0.07,3.73-0.47c1.25-0.51,2.17-1.13,2.6-1.74c0.49-0.71,0.71-1.58,0.56-2.28
		c-0.1-0.48-0.35-0.86-0.76-1.11c-0.6-0.37-1.27-0.47-1.83-0.29c-0.54,0.18-0.96,0.61-1.21,1.24c-0.22,0.57-0.28,1.08-0.33,1.53
		c-0.09,0.77-0.15,1.38-1,1.83c-0.54,0.27-1.21,0.44-1.89,0.48L8.72,8.3l0.08-0.12c0.81-1.19,1.35-2.43,1.5-3.47
		c0.16-1.28,0.07-2.24-0.3-3.11C9.71,0.91,9.1,0.34,8.41,0.11c-0.6-0.2-1.2-0.14-1.76,0.18c-0.56,0.35-0.91,0.81-1,1.32
		c-0.1,0.53,0.08,1.11,0.5,1.68c0.38,0.5,0.83,0.78,1.22,1.03C7.98,4.71,8.5,5.04,8.5,6.02c0,0.57-0.22,1.26-0.44,1.92L8.02,8.1
		L7.94,7.95C7.17,6.53,6.41,5.5,5.67,4.91C4.68,4.05,3.4,3.67,2.85,3.59C1.97,3.49,1.2,3.7,0.67,4.17C0.23,4.57,0,5.13,0,5.8
		c0,0.6,0.22,1.11,0.62,1.46c0.43,0.37,1.04,0.52,1.71,0.41c0.61-0.08,1.09-0.32,1.51-0.52c0.67-0.33,1.24-0.61,2.04-0.11
		c0.53,0.31,1.05,0.83,1.4,1.4l0.07,0.12L7.22,8.55C5.87,8.46,4.55,8.61,3.49,8.98c-1.21,0.49-2.16,1.33-2.34,1.49l-0.01,0.01
		c-0.58,0.56-0.9,1.44-0.81,2.24c0.07,0.63,0.37,1.14,0.85,1.44c0.61,0.37,1.33,0.47,1.93,0.28c0.52-0.17,0.93-0.57,1.16-1.15
		c0.23-0.59,0.26-1.14,0.29-1.62c0.04-0.76,0.08-1.41,0.91-1.82C5.99,9.58,6.69,9.4,7.39,9.36l0.15-0.01L7.46,9.47
		c-0.6,0.88-1.35,2.19-1.54,3.42c-0.19,1.56,0.05,2.45,0.26,2.98c0.31,0.79,0.92,1.41,1.63,1.65c0.59,0.2,1.2,0.12,1.76-0.22
		c0.46-0.28,0.77-0.72,0.87-1.23c0.1-0.57-0.07-1.18-0.5-1.73c-0.38-0.49-0.78-0.77-1.14-1.02c-0.6-0.42-1.07-0.75-1.07-1.74
		c0-0.58,0.23-1.31,0.44-1.88L8.2,9.56L8.28,9.7c0.79,1.42,1.53,2.42,2.27,3.04C11.57,13.58,12.84,14.06,13.57,14.1"/>
</g>
</svg>
